<?xml version="1.0" encoding="UTF-8"?>
<svg viewBox="0 0 81.880859 84.962006" xmlns="http://www.w3.org/2000/svg">
 <g transform="translate(-3013.8 425.06)">
  <path d="m3015.7836-340.1693c-.7609-.07861-1.167-.32974-1.3472-.83303-.1418-.39621-.2832-12.08225-.3141-25.96894s-.1406-32.30323-.2437-40.92568c-.1561-13.04686-.111-15.77986.2688-16.28911 .4389-.58838 1.9693-.61773 39.7938-.76321 27.6408-.10631 39.3373-.04703 39.3373.19936 0,.61589 1.4627.5927-40.4527.64151-28.9353.03371-37.1039.13246-37.5229.45369s-.5474,1.10153-.5919,3.71108c-.1103,6.47603.3698,78.5191.5244,78.6737 .0866.08667 1.3816.18875 2.8778.22683 4.8239.12289 29.6733.08969 33.2494-.04442 1.906-.07145 11.4856-.22582 21.288-.34304 10.6004-.12675 17.9036-.33969 18.0226-.52553 .1101-.17183.4071-.28346.6601-.24801 .8095.11345 1.402-.00679 1.1712-.23762-.3896-.38956-30.8015-.46603-34.706-.0873-3.9415.38236-41.0035.50975-41.3677.14221-.1199-.12105-.2181-9.00669-.2181-19.74582 0-25.7854-.4938-54.01546-.9449-54.01546-.2064,0-.185-.15729.0538-.39608s.3961-1.44053.3961-3.11595c0-1.49595.1114-2.78579.2475-2.8663s17.6215-.20067 38.8564-.26702l38.6089-.12061 .0609,3.79553c.0334,2.08754.155,19.46447.2702,38.61538s.2882,35.22827.3844,35.72746c.1825.94605.6219,1.20606.8367.49508 .0977-.32306.0741-6.65578-.042-11.30408-.009-.36305-.0121-6.8237-.0067-14.35699 .0126-17.69201-.2971-48.02905-.5202-50.95764-.0954-1.25171-.3156-2.54151-.4894-2.8662-.4803-.89755-.3817-1.29385.3219-1.29385 .3509,0 .7202.25992.8208.57759s.2556,14.09297.3445,30.61177 .2005,35.11031.2481,41.31448-.0182,11.38514-.1463,11.51319c-.3037.30374-7.9924.4146-46.4611.67006-17.5172.11634-31.9237.23492-32.0145.26354s-.6551.00139-1.2542-.06057zm29.2324-9.825c1.1382-1.1008 2.1407-1.9302 2.2278-1.84314s.1583,1.01251.1583,2.05654c0,2.49308.1673,2.84599 1.7267,3.64157 .7235.36906 1.2573.54837 1.1864.3985s-.3257-.66356-.5662-1.14143c-.3936-.78211-.3346-1.0842.5911-3.02375 .8501-1.78135.9707-2.30663.6954-3.03062-.5542-1.45764-.3869-2.65848.5042-3.62004 .8009-.86419.8725-.88026 1.6503-.37064 1.0862.71175 1.0671,2.17125-.0537,4.08365-.7525,1.28418-.8434,1.73506-.6903,3.42433 .0971,1.06999.3552,2.16075.5736,2.42396s.3109.7032.2056.97779c-.2255.58758-.0919.6029 1.4379.1647 1.2924-.37021 2.3103-1.9651 2.3103-3.62004 0-1.37438.4454-1.47564 2.4076-.54736 .9566.45256 2.1801.92285 2.7188,1.04513s2.0677.59719 3.3977,1.05539c2.0224.69675 2.8419.80858 5.007.68326 2.1552-.12479 2.8356-.31126 4.0623-1.11361 1.6043-1.04915 4.0849-3.71195 4.8436-5.19915 .5281-1.03512 2.8203-2.53048 3.879-2.53048 .7388,0 2.5351,1.84243 2.8917,2.96608 .1852.58343.3051.63012.7245.28202 1.3395-1.11172-.4869-5.77884-2.674-6.83274-2.3606-1.13747-4.2815-.77195-6.5444,1.24526-1.2889,1.14899-1.4226.69544-.3938-1.335 .7695-1.51847 1.0107-2.40904 1.1119-4.10481 .0116-.19423.5525-.97397 1.202-1.73273 1.3826-1.6153.9984-1.82397-.6666-.36207-.9292.81581-1.2016,1.33926-1.3742,2.64036-.1184.89255-.3409,1.62285-.4946,1.62285-.2892,0-.0667-1.60278.3987-2.87068 .1464-.39893.81-1.32718 1.4745-2.06279 1.2541-1.3881 1.2624-1.60191.0372-.95935-.7157.37534-.7164.37293-.0922-.33004s.6188-.70811-.0231-.70811c-.3585,0-1.2977.55282-2.0871,1.22852-1.2745,1.09088-1.3686,1.12672-.8399.31976 .7846-1.19735.3905-1.53479-.6503-.55692-.4532.42566-.8239.60962-.8239.40882 0-.43942 1.2902-1.37824 3.275-2.38303 1.891-.95733 3.5237-.759 5.294.64307 1.5855,1.25576 2.144,2.93609 1.8955,5.70303-.1466,1.63171-.0919,1.89775.3896,1.89775 .3081,0 1.1888-.64061 1.9573-1.42362 1.1639-1.18595 1.4304-1.70472 1.5966-3.10783 .1097-.92635.1022-2.0717-.0166-2.54529-.2947-1.1739-2.4394-3.48713-3.7368-4.03026-1.3256-.55494-5.0352-.57912-6.2659-.04085-1.5187.66424-3.3599,2.27223-4.4004,3.84306-.9235,1.39426-1.3045,2.59461-.7062,2.22482 .1497-.09251-.1464,1.04975-.6579,2.53839s-.931,2.96652-.9322,3.28419c-.0035.89766-.6381.68705-1.821-.60438-1.8602-2.03087-5.058-1.80357-6.0765.43193-.358.78554-.35.78957 1.1227.5687 .8159-.12231 1.8389-.13317 2.2734-.02413 .9762.24503 1.7473,1.79242 2.0014,4.01654 .1679,1.46919.0708,1.85439-.8232,3.26392l-1.0135,1.59815-2.4233-.18328c-2.9507-.22314-3.3826-.44038-5.0568-2.54317-1.9248-2.41735-2.3601-5.194-2.4774-15.8028l-.0923-8.34405 1.0744.20156c1.5733.29516 3.5969-.82634 4.2315-2.3452 1.2887-3.08438.1146-5.15591-3.7152-6.55495l-1.807-.66009-.0432-6.43589c-.0507-7.54036.2842-9.03392 2.5522-11.38108l1.365-1.41266 7.4261-.16046c6.7453-.14576 7.5168-.10585 8.4161.43526 2.6215,1.57718 4.4732,4.67678 3.7967,6.35526-.2386.59194-.293.48339-.3103-.61877-.0213-1.36032-.4697-2.1288-1.2421-2.1288-.236,0-.4298.18566-.4307.41257-.0035.89125-1.5117,2.26767-2.8037,2.55874-1.0291.23185-1.8171.14658-3.5738-.38681-2.9848-.90618-4.3876-.69201-6.9794,1.06552-1.1282.76508-2.2084,1.64274-2.4005,1.95034-.3018.48332-.0285.45308 2.0116-.22226 2.9005-.96017 5.0215-.81043 6.1936.43731l.7627.81175-1.7027,1.63264c-1.7058,1.6356-3.0805,4.08276-3.0317,5.39655 .0207.55682.0985.49738.379-.28948 .408-1.14467 1.9392-3.46892 2.7026-4.10247s.6472-.23641-.4386,1.53962c-3.0987,5.06868-2.5489,9.23762 1.7001,12.89269 1.188,1.02195 1.9414,1.39392 3.1354,1.54818 .8645.11165 1.8688.26696 2.2318.34509 1.5171.32651 4.1768-.64487 5.7332-2.09385l1.5278-1.42232-1.7674.86789c-1.4323.70333-2.0268.82482-3.1355.64067-1.9328-.32099-2.8223-.84996-4.5687-2.71707-1.8171-1.94261-2.2711-3.2928-1.8631-5.54057 .1625-.89532.3882-2.36976.5016-3.27656 .1571-1.25619.2674-1.49191.4633-.99015 .1414.36224.2675,1.04998.2802,1.52832 .0806,3.02173 2.3068,6.22628 4.3253,6.22628 1.1114,0 1.2828-.47408.3517-.97244-1.2212-.65356-2.0105-4.38753-1.3938-6.59415 .259-.92681 1.0306-1.32653 1.0306-.5339 0,1.84269 3.2546,5.79602 5.4673,6.64103 1.5369.58696 3.991.47737 5.5861-.24942 .8584-.3911 1.4884-1.78406 1.4884-3.29108 0-1.07724-.5149-1.2584-.8224-.28938-.2926.92188-1.7578,1.98888-2.7312,1.98888-1.1408,0-2.966-1.19565-3.5504-2.32579-.7506-1.45154-.6096-3.72534.3484-5.61571 1.2758-2.51762 1.5497-4.51717.9325-6.80692-.2845-1.05539-.5632-3.1771-.6193-4.71491s-.2336-2.83981-.3943-2.89335-.6234.35064-1.0282.89822-.8905.99562-1.0793.99562-1.038-.47808-1.8872-1.06236l-1.5441-1.06231 1.484-.29348c.938-.18552 1.94-.70544 2.7232-1.41303 .6816-.61572 1.3997-1.11951 1.5958-1.11951s.2956-.18565.221-.41255-.8667-.48682-1.7602-.57759c-1.4327-.14552-1.6367-.26255-1.7263-.99013-.299-2.4261-2.932-5.16971-5.3933-5.61979l-1.355-.24777 .8247.70596c1.7876,1.53025 2.5597,2.98207 2.5597,4.81277 0,1.49881-.1335,1.85895-.9837,2.65318-1.8108,1.6915-3.2287,1.77534-25.6788,1.51806-18.9276-.21689-20.4021-.27531-21.9955-.87148-2.254-.84333-3.8173-2.46778-4.0509-4.20941-.1536-1.14535-.0547-1.45396.6862-2.14055 1.0959-1.01564 1.0873-1.22164-.0511-1.22164-1.2138,0-2.1775.71408-2.8358,2.10125-.711,1.49839-.6788,2.59991.122,4.16964 .842,1.65033.842,1.65024-.3085,1.65024-1.2937,0-2.7517.57774-2.4973.9895 .1124.18185.5298.32877.9275.32641s1.8265.25388 3.1749.56934l2.4518.57352-1.7886.51754c-3.8097,1.10236-4.7648,5.01458-2.4592,10.0739 .6377,1.39939 1.159,3.0085 1.1583,3.57578-.0012,1.00687-1.0589,3.16587-1.5616,3.18771s-1.6569,1.1949-1.8823,1.90523c-.1917.60375-.1027.72362.535.72094 1.2522-.00528 4.0794-1.4982 4.8279-2.54942 1.4455-2.02996 1.5444-5.7876.2062-7.82998-.77-1.17524-.9959-4.45586-.3645-5.29404 .7822-1.03836 1.0387-.31252.4338,1.22747l-.5499,1.4001 1.076,2.10855c.6168,1.2085 1.7454,2.71196 2.6439,3.52205 .8622.77743 1.5677,1.50218 1.5677,1.61059 0,.47369-.8625.12675-1.7147-.68972-.6076-.58218-.9232-.72389-.9184-.41256 .0114.74904 1.1531,3.06899 1.7557,3.56763 .301.24911.552.69468.5578.99013s.2286.82549.4951,1.17784c.7718,1.02046.6178,3.29317-.2951,4.3545l-.7797.90643-1.7322-.71989c-1.7868-.74254-2.3192-.71228-2.3192.13189 0,1.4927 2.3395,3.09523 4.5266,3.10074 .9015.00229 3.0142-1.80343 3.4495-2.94817 .2993-.78735.3452-.8031.6665-.22894 1.4121,2.52317-2.6016,7.66822-6.4251,8.23616-1.0706.15901-1.4175.03639-2.4419-.86308-1.2824-1.12585-2.0447-2.58142-2.4561-4.68919-.1971-1.01007-.2327-.75373-.1515,1.09113 .0923,2.09824.2336,2.56882 1.0878,3.62424 2.5758,3.18243 7.0175,4.08782 10.8205,2.20556 2.1281-1.05331 3.4654-2.6207 3.4654-4.06157v-.83855l.673.72234c.6794.72927 1.515.87875 2.8749.51433 .7346-.19689.7303-.21558-.4126-1.77247-.6352-.86538-1.155-1.8805-1.155-2.25573 0-.99637-.8562-4.12066-1.4292-5.21529-.6778-1.29473-2.2981-2.76911-4.8103-4.37737-1.9214-1.23001-2.0267-1.35345-1.1552-1.35509 3.9209-.00753 6.9906-3.06368 7.586-7.55271 .1275-.96074.0695-1.85971-.1437-2.22659-.3383-.58217-.3581-.57774-.3676.08212-.0058.40183-.7035,1.34609-1.6461,2.22781-1.568,1.46662-1.7181,1.53039-3.6052,1.53039-2.5796,0-3.8588-.95813-4.0764-3.05312-.1771-1.70558.7704-3.37221 1.7687-3.11115 .3399.08891.618.00472.618-.18707 0-.23881 1.8976-.291 6.0233-.16555l6.0234.18308 1.6914,1.85469c2.5867,2.83635 3.1535,4.7415 3.3518,11.26635 .159,5.22667-.055,6.74464-.9506,6.74464-.1869,0-1.0672.31292-1.9563.69541-2.6987,1.16098-3.7502,4.30281-2.2086,6.59931 .6906,1.02874 2.0872,1.95492 3.6715,2.43477 .5967.18074.6181.47131.4197,5.70944-.2572,6.78984-1.1572,12.39276-2.3055,14.35221-1.0442,1.78171-4.0634,4.94125-5.365,5.61435-.5455.28211-1.5066.60734-2.1356.72276-.9689.1778-1.3077.05882-2.2164-.77821-.7834-.72159-1.0727-1.27458-1.0727-2.05041 0-2.43737 3.7605-6.30722 7.2971-7.50938 .9877-.33568 1.7792-.80511 1.7792-1.05515s-.5199-.80419-1.1552-1.23658c-.9902-.67386-1.4068-.75733-2.9168-.58445-.969.11093-2.3707.49592-3.115.85551s-1.3995.65382-1.4562.65382-.1047-.55694-.1066-1.23766c-.0086-2.95418-1.4787-5.62603-4.2628-7.74691-1.0088-.76852-1.5001-.89978-3.3972-.90762-2.5632-.01064-4.0702.6654-5.7721,2.58926-.8689.98228-1.0613,1.47924-1.0726,2.76962-.0117,1.3327.1544,1.75601 1.0883,2.77516 1.1305,1.23357 1.8684,1.26886 1.8684.08938 0-.3518.5371-1.23418 1.1935-1.9608 1.0286-1.13856 1.3834-1.32112 2.5668-1.32112 1.0591,0 1.6167.22225 2.437.97152 1.1567,1.05648 1.3425,1.42505.5686,1.12811-.6282-.24107-.6227-.00344.0288,1.25651 .6673,1.29036 1.0395,6.84172.5183,7.73106-.2896.49427-.3617-.00831-.3357-2.34098 .0237-2.12239-.1305-3.37264-.54-4.37931-.6424-1.5792-1.8841-2.72334-2.9339-2.70347-.6233.01177-.6014.06567.2054.50342 1.8644,1.01165 2.4943,3.96394 1.3994,6.55902-.3016.71493-.5719,2.29548-.6005,3.51235s-.142,2.15887-.2517,2.09326-.5191-.99533-.9095-2.06606c-.911-2.49844-2.5203-3.73925-4.8499-3.73925-1.8407,0-2.3945.45387-2.81,2.3031-.3292,1.4652-.0476,2.61954.8135,3.33416 .5926.49179.7338.03487.165-.5339s-.0314-3.00968.755-3.43048c1.7368-.92956 3.9345,1.1244 4.8892,4.56951 .5147,1.85714.9716,2.69993 2.1676,3.99835 1.8753,2.03584 3.3239,2.74918 6.0845,2.99631 1.953.17482 2.382.08819 4.7857-.96638 1.9369-.84977 3.1917-1.69157 4.7099-3.15979zm24.0281-.45919c1.0627-.53606 1.9895-.91737 2.0596-.84733 .1678.16793-3.1043,1.82199-3.6044,1.82199-.2131,0 .482-.43859 1.5448-.97466zm-34.3038-1.21566c-.3126-.65553-.4964-1.26381-.4085-1.35171s.3932.39884.6785,1.08167c.6733,1.61139.4677,1.81699-.27.27004zm38.7864-8.55333c.0627-.32354.3139-.65478.5581-.7361 .284-.0946.403.06409.33.44034-.0627.32354-.3138.65478-.5581.73614-.284.09455-.403-.06414-.33-.44038zm-20.5853-20.5282c-1.0932-1.25325-1.3504-2.10258-.8027-2.6503 .4606-.46062.492-.43968.321.21436-.2364.90391.7088,2.02339 1.7083,2.02339 .3976,0 .9819-.28629 1.2985-.63616 .5083-.56169.5226-.74522.1216-1.56772-.3836-.78684-.6446-.92572-1.6798-.89394-1.2603.03872-1.6281-.3076-.7034-.66243 1.8616-.71439 3.1084.17621 3.1084,2.22042 0,1.35256-.1089,1.57916-.9737,2.02641-1.2592.65114-1.7797.63507-2.3982-.07403zm17.6175-3.2321c-.4571-1.00322-.4969-1.80109-.0897-1.80109 .2475,0 .7323,2.30662.5379,2.55924-.0355.04614-.2372-.29504-.4482-.75815zm12.1591-12.20018c.181-.47599.329-1.67265.329-2.65922s.1485-1.79376.3301-1.79376c.6684,0 .0301,4.68909-.6997,5.14017-.1587.09806-.1404-.2112.0406-.68719zm-3.8751-2.04052c.3069-.30687.6685-.4473.8037-.31208s.0274.38397-.2397.55286c-.8034.50817-1.1606.35576-.564-.24078zm3.4198-6.22076c-.3185-.82997-.2246-1.04414.1645-.37503 .1927.33126.2808.67184.1958.75682-.085.08499-.2471-.08683-.3603-.38179zm-1.9797-2.74691c-.3058-.33793-1.1457-.88029-1.8664-1.20529-.7207-.325-1.3104-.7169-1.3104-.87083 0-.38625.2223-.35334 1.2541.18568 .8423.44001 3.0303,2.50483 2.6543,2.50483-.0966,0-.4258-.27649-.7316-.61439zm-37.3577,38.76477c.612-.25567 1.2113-.7755 1.3318-1.15514s.341-.6902.4901-.6902c.4172,0 .7296-2.17676.4932-3.43693-.4466-2.38016-2.8718-3.42093-5.3056-2.27679-1.2591.59193-3.4242,3.28858-3.4242,4.26485 0,.599 2.2658,3.09722 3.125,3.44552 1.0148.4114 2.0577.36343 3.2897-.15131zm-2.3789-1.08106c-.2229-.39649-.4053-1.11806-.4053-1.60349 0-.77663-.0991-.85772-.8251-.6755-.609.15281-.8252.07571-.8252-.29428 0-.31152.3051-.50134.8057-.50134 .9684,0 1.3685-.52384.8643-1.13145-.2945-.35481-.1662-.4323.6478-.39137 .5583.02809 1.1397.25271 1.292.49915s.4421.34609.6439.22136c.2222-.13732.367.03176.367.42857 0,.36044.2599.71755.5776.79353 .5423.12971.5412.1539-.0185.39665-.4167.18073-.793.04713-1.2505-.44401-.8147-.87443-1.1687-.8837-1.6189-.04238-.2523.47138-.2497.85363.0091,1.33718 .1993.37242.3126,1.00363.2519,1.4027l-.1105.7256-.4053-.72092zm2.8951-4.37532c0-.19224.1486-.34951.3301-.34951 .4229,0 .4229.23367 0,.49507-.1815.11218-.3301.04667-.3301-.14556zm25.9993,3.60966c1.2382-.75489 1.7246-1.78922 1.7246-3.66702 0-4.6612-5.8235-5.86135-8.1713-1.68399-.9288,1.65265-.936,2.70374-.0266,3.85988 1.676,2.13076 4.3965,2.75738 6.4733,1.49113zm-1.7386-1.97513c-.1156-.1871.0169-.24242.3106-.12972 .5718.21943.6764.45599.2016.45599-.1708,0-.4013-.14683-.5122-.32627zm-2.3709-.70637c.1211-.46296-.0404-.74346-.5449-.94684-.3944-.15894-.56-.29842-.3681-.30994s.8233-.41392 1.4031-.89423c.821-.68012.9722-.97215.6833-1.32018-.2645-.31879-.2671-.44684-.0088-.44684 .199,0 .5924.44556.8739.99012s.6568.99015.8336.99015 .3216.22278.3216.49507c0,.31107.3139.49506.8446.49506 .479,0 .7563.14284.6406.33005-.313.50649-1.8152.39916-1.8152-.12974 0-.64713-.9811-.94879-1.55-.47662-.2619.21736-.4089.65269-.3266.96736 .0968.37012-.0814.63263-.5048.74333-.5246.13717-.6202.04063-.4823-.48675zm3.2458-2.92791c0-.45381.0749-.63946.1665-.41255s.0916.5982 0,.82511-.1665.04126-.1665-.41256zm-10.0541-36.09437c.4055-.40553-.5909-2.82791-1.437-3.49343-1.7759-1.3969-5.4082-.52251-6.2558,1.50592-.5407,1.29412-.3259,2.02547.6429,2.1887 1.1282.19011 6.821.02766 7.0499-.20119zm-20.0958-1.5785c.8518-.20775 1.7304-.5195 1.9522-.69288 .2696-.21063.5738-.14475.9172.19865 .6681.66808 1.2073.44844 3.7513-1.52798 3.3834-2.62847 5.284-3.36823 8.7825-3.41836 3.4064-.04881 5.8766.54875 7.1216,1.72273 .4638.43728 1.1321.81229 1.4852.83335 .555.03309.5637.05875.0645.18922-.8739.22837-.7113.4864 1.1649,1.84893 1.3319.96729 1.9103,1.20202 2.5481,1.03416 .4538-.11948 1.7534-.19202 2.8879-.16126 2.047.05551 2.4233-.14648 1.6722-.89756-.665-.66501-.0083-.85872 1.6287-.48035 1.5157.35027 2.3409.13644 1.945-.50405-.3569-.5776-3.8663-1.48006-5.0245-1.2921-1.3663.22172-1.4179-.00902-.2214-.98868l.9076-.74314-1.3202.00251c-.7261.00138-1.9573.1257-2.7361.27628-1.3828.26737-1.4025.25894-.8413-.36118s.5232-.63341-1.8845-.56112c-1.7123.0514-2.7599-.08319-3.4493-.44318-1.3802-.72064-5.5158-1.03702-8.0897-.61888-1.2836.20853-3.0113.81377-4.2906,1.50305-2.4828,1.3377-3.2131,1.49475-1.8394.39553 1.1111-.88906.9034-1.1221-1.2651-1.41932-1.597-.2189-1.9999.21525-1.1,1.18514 .4492.48412.5885.52206-2.3928-.65173-1.7673-.69577-3.1085-.84315-4.4557-.48956-1.5062.3953-1.6406.55723-.825.99375l.7494.40104-.885.22211c-.4867.12216-1.0156.14142-1.1751.0428-.4297-.26554-2.0014.53357-1.7738.90184 .3318.53679 2.8665,1.55269 3.893,1.56036 .7754.00577.8902.09069.5639.417-.2254.2254-.9605.5757-1.6337.77851-1.223.36847-1.2233.36907-.3989.72449 1.0881.46906 1.7106.47253 3.5669.01988zm-19.079-.2824c0-.18152-.1573-.33004-.3496-.33004s-.2577.14852-.1455.33004c.2614.42288.4951.42288.4951,0z"/>
 </g>
</svg>
